<svg width="64" height="64" viewBox="0 0 64 64" fill="none" xmlns="http://www.w3.org/2000/svg">
<rect width="64" height="64" fill="white"/>
<path d="M31.4398 7.11328H29.3743V34.7315H31.4398V7.11328Z" fill="#0085FF"/>
<path d="M27.3092 36.7427H6V38.7441H27.3092V36.7427Z" fill="#0085FF"/>
<path d="M28.9615 34.9463L12.9418 19.4922L11.491 20.9077L27.4905 36.3423L28.9615 34.9463Z" fill="#0085FF"/>
<path d="M31.4398 40.7744H29.3743V55.8869H31.4398V40.7744Z" fill="#0085FF"/>
<path d="M27.5182 39.1162L11.7022 54.4412L13.1627 55.8563L28.9786 40.5313L27.5182 39.1162Z" fill="#0085FF"/>
<path d="M59.5492 8.08952L31.8321 34.9365L33.293 36.3521L61 9.50507L59.5492 8.08952Z" fill="#0085FF"/>
<path d="M33.3084 39.2047L31.8586 40.6164L36.2436 44.8446L37.6934 43.4329L33.3084 39.2047Z" fill="#0085FF"/>
</svg>
