<?xml version="1.0" standalone="no"?>
<!DOCTYPE svg PUBLIC "-//W3C//DTD SVG 20010904//EN"
 "http://www.w3.org/TR/2001/REC-SVG-20010904/DTD/svg10.dtd">
<svg version="1.0" xmlns="http://www.w3.org/2000/svg"
 width="1000.000000pt" height="708.000000pt" viewBox="0 0 1000.000000 708.000000"
 preserveAspectRatio="xMidYMid meet">

<g transform="translate(0.000000,708.000000) scale(0.100000,-0.100000)"
fill="#ffffff" stroke="none">
<path d="M3180 4565 l0 -985 35 0 35 0 0 985 0 985 -35 0 -35 0 0 -985z"/>
<path d="M4255 4510 l-950 -950 26 -26 26 -26 44 48 c24 26 62 63 83 83 21 20
57 56 80 80 23 24 59 60 80 80 21 20 57 56 80 80 23 24 59 60 80 80 21 20 57
56 80 80 23 24 59 60 80 80 21 20 57 56 80 80 23 24 59 60 80 80 21 20 57 56
80 80 23 24 59 60 80 80 21 20 57 56 80 80 23 24 59 60 80 80 21 20 57 56 80
80 23 24 59 60 80 80 21 20 57 56 80 80 23 24 59 60 80 80 21 20 57 56 80 80
23 24 59 60 80 80 21 20 57 56 80 80 23 24 58 60 80 80 54 50 160 161 164 170
1 4 -8 17 -21 29 l-23 21 -949 -949z"/>
<path d="M1997 4632 l-27 -29 540 -534 c297 -294 540 -532 540 -529 0 3 5 -3
11 -13 8 -14 14 -16 25 -6 7 6 11 15 8 20 -3 5 0 8 7 7 6 -2 13 2 15 7 2 6
-243 257 -544 558 l-547 548 -28 -29z"/>
<path d="M1580 3420 l0 -40 741 0 740 0 -3 38 -3 37 -737 3 -738 2 0 -40z"/>
<path d="M2530 2785 l-545 -545 26 -26 26 -25 34 34 c19 19 52 54 75 78 23 24
59 60 80 80 21 20 57 56 80 80 23 24 59 60 80 80 21 20 57 56 80 80 23 24 59
60 80 80 21 20 57 56 80 80 23 24 59 60 80 80 21 20 58 56 81 80 23 24 107
109 187 189 80 79 146 147 146 150 0 4 -10 16 -23 28 l-23 21 -544 -544z"/>
<path d="M3330 3305 l-24 -26 154 -154 154 -154 23 21 c13 12 22 25 21 29 -5
12 -118 130 -118 123 0 -4 -9 5 -20 19 -28 36 -140 147 -140 139 0 -3 -6 2
-13 12 -12 16 -14 15 -37 -9z"/>
<path d="M3182 2718 l3 -543 33 -3 32 -3 0 545 0 546 -35 0 -35 0 2 -542z"/>
<path d="M3790 2510 l0 -340 168 0 c195 0 250 11 299 62 42 44 53 76 53 159 0
74 -12 109 -52 146 -44 42 -90 53 -213 53 l-115 0 0 65 0 65 165 0 165 0 0 65
0 65 -235 0 -235 0 0 -340z m362 -67 c20 -21 28 -79 13 -103 -15 -24 -76 -40
-155 -40 l-80 0 0 86 0 87 101 -5 c84 -4 104 -8 121 -25z"/>
<path d="M4360 2845 c0 -2 52 -102 114 -221 l115 -218 -57 -110 c-31 -61 -58
-114 -60 -118 -2 -4 32 -8 75 -8 l78 0 173 334 c94 183 172 336 172 340 0 4
-35 6 -77 4 l-76 -3 -75 -143 -75 -144 -76 146 -76 146 -77 0 c-43 0 -78 -2
-78 -5z"/>
<path d="M5115 2838 c-2 -7 -20 -116 -41 -243 -20 -126 -42 -245 -50 -262 -12
-31 -16 -33 -63 -33 l-51 0 0 -130 0 -130 70 0 70 0 0 65 0 65 230 0 230 0 0
-65 0 -65 70 0 70 0 0 129 0 130 -47 3 -48 3 -3 273 -2 272 -215 0 c-164 0
-217 -3 -220 -12z m300 -328 l0 -205 -122 -3 c-78 -2 -123 1 -123 7 0 17 60
385 65 399 3 9 28 12 92 10 l88 -3 0 -205z"/>
<path d="M5680 2847 c0 -1 52 -101 115 -221 l114 -218 -59 -119 -60 -119 78 0
77 0 176 340 177 340 -79 0 -78 0 -73 -140 c-40 -77 -76 -140 -79 -140 -3 0
-39 63 -80 140 l-74 140 -77 0 c-43 0 -78 -1 -78 -3z"/>
<path d="M6390 2510 l0 -340 400 0 400 0 0 -65 0 -65 70 0 70 0 0 130 0 130
-50 0 -50 0 0 275 0 275 -70 0 -70 0 -2 -272 -3 -273 -102 -3 -103 -3 0 276 0
275 -70 0 -70 0 -2 -272 -3 -273 -102 -3 -103 -3 0 276 0 275 -70 0 -70 0 0
-340z"/>
<path d="M7420 2510 l0 -340 230 0 230 0 0 65 0 64 -157 3 -158 3 -3 73 -3 72
146 0 145 0 0 65 0 65 -145 0 -145 0 0 70 0 70 160 0 160 0 0 65 0 65 -230 0
-230 0 0 -340z"/>
<path d="M7980 2510 l0 -340 230 0 230 0 0 65 0 64 -157 3 -158 3 -3 73 -3 72
146 0 145 0 0 65 0 65 -145 0 -145 0 0 70 0 70 160 0 160 0 0 65 0 65 -230 0
-230 0 0 -340z"/>
<path d="M6372 1844 c7 -39 78 -44 92 -8 9 25 -1 30 -22 11 -23 -21 -41 -22
-48 -2 -8 20 -26 19 -22 -1z"/>
<path d="M3807 1783 c-4 -3 -7 -53 -7 -110 0 -85 3 -103 15 -103 12 0 15 17
15 95 l0 95 65 0 65 0 0 -95 c0 -57 4 -95 10 -95 6 0 10 43 10 110 l0 110 -83
0 c-46 0 -87 -3 -90 -7z"/>
<path d="M4080 1680 l0 -110 70 0 c40 0 70 4 70 10 0 6 -25 10 -55 10 l-55 0
0 40 0 40 50 0 c28 0 50 5 50 10 0 6 -22 10 -50 10 l-50 0 0 35 0 35 55 0 c42
0 55 3 55 15 0 12 -14 15 -70 15 l-70 0 0 -110z"/>
<path d="M4310 1680 c0 -62 4 -110 9 -110 6 0 11 21 13 48 l3 47 60 0 60 0 3
-47 c2 -27 7 -48 13 -48 5 0 9 48 9 110 0 67 -4 110 -10 110 -5 0 -10 -22 -10
-50 l0 -50 -65 0 -65 0 0 50 c0 28 -4 50 -10 50 -6 0 -10 -43 -10 -110z"/>
<path d="M4636 1775 c-43 -23 -55 -45 -56 -101 0 -42 4 -54 28 -76 15 -15 39
-30 54 -33 35 -9 94 11 113 38 30 43 10 51 -29 12 -37 -37 -86 -34 -120 6 -30
35 -32 58 -11 98 23 46 83 56 128 21 34 -27 51 -27 37 0 -13 24 -61 50 -92 50
-13 0 -36 -7 -52 -15z"/>
<path d="M4880 1679 c0 -100 2 -110 18 -107 9 2 42 41 72 88 l55 84 3 -87 c4
-127 22 -108 22 23 0 81 -3 110 -12 110 -7 0 -40 -40 -73 -89 l-60 -89 -3 89
c-4 129 -22 111 -22 -22z"/>
<path d="M5194 1771 c-60 -36 -68 -124 -17 -175 51 -51 145 -39 177 23 56 107
-58 214 -160 152z m121 -36 c53 -52 16 -145 -57 -145 -57 1 -94 48 -84 106 13
64 94 87 141 39z"/>
<path d="M5460 1680 c0 -62 4 -110 9 -110 6 0 11 21 13 48 l3 47 63 3 62 3 0
-51 c0 -38 4 -50 15 -50 12 0 15 19 15 110 0 91 -3 110 -15 110 -11 0 -15 -12
-15 -50 l0 -51 -62 3 -63 3 -3 48 c-2 26 -7 47 -13 47 -5 0 -9 -48 -9 -110z"/>
<path d="M5740 1680 c0 -62 4 -110 9 -110 6 0 11 21 13 48 l3 47 60 0 60 0 3
-47 c2 -34 7 -48 18 -48 12 0 14 18 12 107 -2 74 -7 108 -15 111 -9 2 -13 -11
-13 -48 l0 -51 -62 3 -63 3 -3 48 c-2 26 -7 47 -13 47 -5 0 -9 -48 -9 -110z"/>
<path d="M6020 1680 l0 -111 67 3 c60 3 69 6 82 29 31 55 -9 99 -89 99 l-40 0
0 45 c0 25 -4 45 -10 45 -6 0 -10 -43 -10 -110z m118 -22 c33 -33 1 -68 -62
-68 -35 0 -36 1 -36 40 l0 40 43 0 c24 0 48 -5 55 -12z"/>
<path d="M6210 1680 c0 -67 4 -110 10 -110 6 0 10 43 10 110 0 67 -4 110 -10
110 -6 0 -10 -43 -10 -110z"/>
<path d="M6330 1680 c0 -142 12 -145 92 -22 l58 87 0 -87 c0 -72 3 -88 15 -88
13 0 15 16 13 107 -4 140 -14 143 -93 21 l-60 -92 -3 92 c-4 131 -22 116 -22
-18z"/>
<path d="M6846 1775 c-3 -8 -16 -15 -29 -15 -14 0 -36 -9 -51 -21 -54 -42 -24
-139 44 -139 17 0 33 -7 40 -17 10 -17 10 -17 20 0 7 10 23 17 40 17 68 0 98
97 44 139 -15 12 -37 21 -51 21 -13 0 -26 7 -29 15 -4 8 -10 15 -14 15 -4 0
-10 -7 -14 -15z m2 -90 c4 -56 -6 -70 -43 -61 -53 13 -54 85 -2 106 35 14 42
7 45 -45z m95 23 c30 -35 -3 -92 -48 -86 -16 2 -21 12 -23 47 -2 24 -1 50 2
58 8 19 45 8 69 -19z"/>
<path d="M7114 1771 c-60 -36 -68 -124 -17 -175 51 -51 145 -39 177 23 56 107
-58 214 -160 152z m121 -36 c54 -53 16 -145 -60 -145 -26 0 -43 7 -60 26 -53
57 -16 144 60 144 25 0 44 -8 60 -25z"/>
<path d="M7380 1680 c0 -62 4 -110 9 -110 6 0 11 21 13 48 l3 47 63 3 62 3 0
-51 c0 -38 4 -50 15 -50 13 0 15 16 13 107 -2 74 -7 108 -15 111 -9 2 -13 -11
-13 -48 l0 -51 -62 3 -63 3 -3 48 c-2 26 -7 47 -13 47 -5 0 -9 -48 -9 -110z"/>
<path d="M7700 1713 c-15 -96 -25 -123 -45 -123 -11 0 -15 -10 -15 -35 0 -24
5 -35 15 -35 9 0 15 9 15 25 l0 26 88 -3 c82 -3 87 -4 90 -25 5 -36 22 -27 22
11 0 21 -6 36 -15 40 -12 4 -15 25 -15 101 l0 95 -64 0 -63 0 -13 -77z m118
-35 l-3 -83 -54 -3 -54 -3 7 43 c4 24 10 62 13 86 l6 42 44 0 44 0 -3 -82z"/>
</g>
</svg>
